#!OML:ASF C:\Vicon Data\Big\jianyuan-13\jianyuan\Session 1\Capture.male.ASF
:FULLY-SPECIFIED
:DEGREES
1
root -7.733500 17.076500 -23.999400 5.191693 12.882463 2.809669
lowerback -13.745000 -2.371210 -7.454600 
upperback 1.333570 -1.901810 -0.948511 
thorax 9.414310 -1.303030 2.765700 
lowerneck -9.037000 -3.010550 4.008860 
upperneck 8.763970 -4.368170 -2.468310 
head 4.390640 -2.163650 -1.846810 
rclavicle 0.000000 0.000000 
rhumerus -44.524700 -25.273600 -71.937000 
rradius 33.943400 
rwrist 28.762800 
rhand -19.640700 -19.107500 
rfingers 0.000000 
rthumb 6.686650 -48.982000 
lclavicle 0.000000 0.000000 
lhumerus -56.160000 46.852600 47.832900 
lradius 21.415200 
lwrist -78.948000 
lhand -19.601500 0.327250 
lfingers 0.000000 
lthumb 6.724560 30.200500 
rfemur -34.790200 3.253260 13.723000 
rtibia 22.994600 
rfoot -3.680240 -14.376700 
rtoes -35.114900 
lfemur 9.606760 -3.465600 -25.922700 
ltibia 9.158690 
lfoot -16.699100 -8.212380 
ltoes -28.306200 
2
root -7.758119 17.107190 -23.788835 5.403493 13.284518 2.166295
lowerback -13.844350 -2.428099 -6.835886 
upperback 1.215849 -2.090635 -0.663515 
thorax 9.346466 -1.360332 2.685007 
lowerneck -9.053326 -3.038921 4.117469 
upperneck 8.662010 -4.410639 -2.545000 
head 4.351758 -2.184968 -1.892838 
rclavicle 0.000000 0.000000 
rhumerus -44.825969 -25.925850 -71.230021 
rradius 33.391901 
rwrist 29.509981 
rhand -19.511589 -19.080399 
rfingers 0.000000 
rthumb 6.811284 -48.950879 
lclavicle 0.000000 0.000000 
lhumerus -56.219649 47.334489 47.766750 
lradius 21.301770 
lwrist -79.877557 
lhand -19.857052 0.165644 
lfingers 0.000000 
lthumb 6.477825 30.046579 
rfemur -34.559370 4.457991 14.014428 
rtibia 22.581180 
rfoot -3.736609 -17.469219 
rtoes -30.261996 
lfemur 9.865282 -4.115773 -25.019622 
ltibia 9.254427 
lfoot -16.344941 -7.585590 
ltoes -29.283713 
3
root -7.773017 17.116448 -23.682429 5.505989 13.319542 1.979809
lowerback -13.837988 -2.412026 -6.697823 
upperback 1.131539 -2.104891 -0.532764 
thorax 9.250603 -1.358437 2.748095 
lowerneck -8.932177 -3.085967 3.979377 
upperneck 8.564195 -4.463495 -2.413785 
head 4.294867 -2.209678 -1.819759 
rclavicle 0.000000 0.000000 
rhumerus -45.023779 -26.112486 -70.882674 
rradius 33.199656 
rwrist 29.609326 
rhand -19.637687 -19.142457 
rfingers 0.000000 
rthumb 6.689570 -49.016759 
lclavicle 0.000000 0.000000 
lhumerus -56.204527 47.460999 47.946834 
lradius 21.325409 
lwrist -80.023624 
lhand -19.917302 0.267746 
lfingers 0.000000 
lthumb 6.419611 30.150387 
rfemur -34.495162 4.190082 14.491829 
rtibia 22.807665 
rfoot -2.863355 -17.144334 
rtoes -29.094588 
lfemur 9.897303 -4.278597 -24.741732 
ltibia 9.582865 
lfoot -16.270055 -7.095198 
ltoes -31.170588 
4
root -7.789369 17.128165 -23.578941 5.618114 13.296566 1.881960
lowerback -13.790390 -2.439253 -6.648397 
upperback 1.088896 -2.159697 -0.461375 
thorax 9.182801 -1.381076 2.787706 
lowerneck -9.006517 -3.042015 4.054593 
upperneck 8.480587 -4.420328 -2.354995 
head 4.281186 -2.182754 -1.810808 
rclavicle 0.000000 0.000000 
rhumerus -45.042253 -26.295647 -70.709985 
rradius 32.965546 
rwrist 29.942596 
rhand -19.357145 -19.187552 
rfingers 0.000000 
rthumb 6.960420 -49.053148 
lclavicle 0.000000 0.000000 
lhumerus -56.071946 47.660479 48.097590 
lradius 21.312534 
lwrist -80.010570 
lhand -20.139468 0.272862 
lfingers 0.000000 
lthumb 6.205218 30.161977 
rfemur -34.537450 3.683163 15.054994 
rtibia 23.298071 
rfoot -2.090251 -15.861212 
rtoes -27.142147 
lfemur 9.963714 -4.406666 -24.510205 
ltibia 9.813873 
lfoot -15.938967 -6.926735 
ltoes -31.296050 
